# xmcd
#
# Track frame offsets: 
#        150
#        32953
#        58391
#        81662
#        107733
#        129094
#        169091
#        195935
#        216592
#        239593
#        269686
#
# Disc length: 3937 seconds
#
# Revision: 0
# Processed by: cddbd v1.5.2PL0 Copyright (c) Steve Scherf et al.
# Submitted via: ExactAudioCopyFreeDBPlugin 1.0
#
DISCID=aa0f5f0b
DTITLE=Torgeir Waldemar - Torgeir Waldemar
DYEAR=2014
DGENRE=Roots
TTITLE0=Across the River
TTITLE1=Flowers (feat. Ida Jenshus)
TTITLE2=Streets
TTITLE3=Come to Me
TTITLE4=Peace Song
TTITLE5=Imsomnia
TTITLE6=Take me Home
TTITLE7=Burden
TTITLE8=Mystery Song
TTITLE9=We'll Meet Again
TTITLE10=Remedy
EXTD=
EXTT0=
EXTT1=
EXTT2=
EXTT3=
EXTT4=
EXTT5=
EXTT6=
EXTT7=
EXTT8=
EXTT9=
EXTT10=
PLAYORDER=
